<svg width="33" height="33" viewBox="0 0 33 33" fill="none" xmlns="http://www.w3.org/2000/svg">
<rect x="0.124587" y="0.268141" width="31.8828" height="31.7408" rx="5.29442" fill="#ADBBC8" fill-opacity="0.25" stroke="black" stroke-width="0.116361"/>
<g clip-path="url(#clip0_1673_5597)">
<path d="M9.63949 26.512C6.90001 27.6967 5.78833 30.3576 5.82101 32.0262H16.066H26.3109C26.3438 30.3576 25.2319 27.6967 22.4924 26.512C19.6505 25.283 16.8014 25.5461 16.066 25.5461C15.4254 25.5463 12.4815 25.283 9.63949 26.512Z" fill="white" stroke="black" stroke-width="0.0930887" stroke-linecap="round" stroke-linejoin="round"/>
<g clip-path="url(#clip1_1673_5597)">
<path d="M28.5011 17.6493C28.5011 20.1462 27.1202 22.415 24.8709 24.0634C22.6216 25.7117 19.5092 26.7344 16.0669 26.7344C12.6246 26.7344 9.51229 25.7117 7.26297 24.0634C5.01364 22.415 3.63281 20.1462 3.63281 17.6493C3.63281 15.1493 5.06552 12.4474 7.36838 10.3673C9.66962 8.28871 12.8285 6.8418 16.2613 6.8418C19.6936 6.8418 22.7546 8.28828 24.9581 10.3658C27.1632 12.4447 28.5011 15.1469 28.5011 17.6493Z" fill="white" stroke="black" stroke-width="0.116361"/>
<path d="M8.30173 15.0968C7.21795 16.1409 5.92768 16.765 4.72123 16.9338C3.51471 17.1025 2.4001 16.8157 1.64909 16.0499C0.898071 15.2842 0.640405 14.1718 0.844843 12.9813C1.04926 11.7908 1.71535 10.5303 2.79914 9.48621C3.88291 8.44213 5.17319 7.81802 6.37964 7.64928C7.58615 7.48051 8.70076 7.76736 9.45177 8.53312C10.2028 9.29887 10.4605 10.4112 10.256 11.6018C10.0516 12.7922 9.38553 14.0527 8.30173 15.0968Z" fill="white" stroke="black" stroke-width="0.116361"/>
<path d="M23.8284 15.0968C24.9122 16.1409 26.2026 16.765 27.409 16.9338C28.6156 17.1025 29.7302 16.8157 30.4811 16.0499C31.232 15.2842 31.4897 14.1718 31.2854 12.9813C31.081 11.7908 30.4148 10.5303 29.331 9.48621C28.2472 8.44213 26.957 7.81802 25.7506 7.64928C24.544 7.48051 23.4294 7.76736 22.6785 8.53312C21.9273 9.29887 21.6697 10.4112 21.8742 11.6018C22.0786 12.7922 22.7448 14.0527 23.8284 15.0968Z" fill="white" stroke="black" stroke-width="0.116361"/>
<path d="M15.072 18.8833C14.5581 18.7525 13.5064 18.5694 13.4105 18.8833C13.2906 19.2756 14.5235 19.3608 15.072 18.8833Z" fill="black" stroke="black" stroke-width="0.16623" stroke-linecap="round" stroke-linejoin="round"/>
<path d="M18.3691 19.127C18.8992 19.1452 19.9602 19.2636 19.9637 19.5917C19.9681 20.0018 18.7608 19.7386 18.3691 19.127Z" fill="black" stroke="black" stroke-width="0.16623" stroke-linecap="round" stroke-linejoin="round"/>
<g clip-path="url(#clip2_1673_5597)">
<path d="M17.658 23.0201C16.5652 22.8149 14.3986 22.4552 14.4746 22.6573C14.5696 22.9097 17.3888 23.3828 17.658 23.0201Z" fill="black" stroke="black" stroke-width="0.16623" stroke-linecap="round" stroke-linejoin="round"/>
<path d="M16.0651 21.6654C16.5001 21.6654 16.8528 21.3759 16.8528 21.0187C16.8528 20.6616 16.5001 20.3721 16.0651 20.3721C15.63 20.3721 15.2773 20.6616 15.2773 21.0187C15.2773 21.3759 15.63 21.6654 16.0651 21.6654Z" fill="black"/>
</g>
</g>
</g>
<defs>
<clipPath id="clip0_1673_5597">
<rect width="31.9992" height="31.8572" fill="white" transform="translate(0.0664062 0.352539)"/>
</clipPath>
<clipPath id="clip1_1673_5597">
<rect width="31.9992" height="31.7143" fill="white" transform="translate(0.0664062 0.352539)"/>
</clipPath>
<clipPath id="clip2_1673_5597">
<rect width="31.9992" height="31.8572" fill="white" transform="translate(0.0664062 0.209961)"/>
</clipPath>
</defs>
</svg>
