<svg width="154" height="154" viewBox="0 0 154 154" fill="none" xmlns="http://www.w3.org/2000/svg">
<path d="M57.2188 88.2773H70.8889" stroke="black" stroke-width="0.8" stroke-linecap="round" stroke-linejoin="round"/>
<path d="M70.8898 88.2773C70.8898 88.9097 70.794 89.536 70.6077 90.1203C70.4214 90.7046 70.1484 91.2355 69.8042 91.6827C69.46 92.1299 69.0514 92.4847 68.6017 92.7267C68.152 92.9687 67.67 93.0933 67.1832 93.0933C66.6964 93.0933 66.2144 92.9687 65.7647 92.7267C65.315 92.4847 64.9064 92.1299 64.5622 91.6827C64.218 91.2355 63.945 90.7046 63.7587 90.1203C63.5724 89.536 63.4766 88.9097 63.4766 88.2773H67.1832H70.8898Z" fill="black"/>
<path d="M83.1133 88.2852H96.7834" stroke="black" stroke-width="0.8" stroke-linecap="round" stroke-linejoin="round"/>
<path d="M96.7844 88.2852C96.7844 88.9176 96.6885 89.5439 96.5022 90.1282C96.3159 90.7125 96.0429 91.2434 95.6987 91.6906C95.3545 92.1379 94.9459 92.4926 94.4962 92.7346C94.0465 92.9767 93.5645 93.1012 93.0777 93.1012C92.591 93.1012 92.109 92.9767 91.6593 92.7346C91.2096 92.4926 90.8009 92.1379 90.4567 91.6906C90.1125 91.2434 89.8395 90.7125 89.6532 90.1282C89.467 89.5439 89.3711 88.9176 89.3711 88.2852H93.0777H96.7844Z" fill="black"/>
</svg>
