<svg width="154" height="154" viewBox="0 0 154 154" fill="none" xmlns="http://www.w3.org/2000/svg">
<path d="M66.5399 91.3233C66.5399 92.5609 66.2816 93.6131 65.8383 94.3412C65.4014 95.0589 64.8002 95.4461 64.0681 95.4461C63.3446 95.4461 62.8077 95.0719 62.4295 94.3667C62.041 93.6421 61.8379 92.5891 61.8379 91.3362C61.8379 90.0958 62.0856 89.0121 62.5213 88.2536C62.9519 87.5042 63.5426 87.1016 64.263 87.1016C64.9783 87.1016 65.5299 87.4949 65.9243 88.2359C66.3261 88.9908 66.5399 90.0737 66.5399 91.3233Z" fill="black" stroke="black" stroke-width="0.8"/>
<path d="M92.1649 91.3233C92.1649 92.5609 91.9066 93.6131 91.4633 94.3412C91.0264 95.0589 90.4252 95.4461 89.6931 95.4461C88.9696 95.4461 88.4327 95.0719 88.0545 94.3667C87.666 93.6421 87.4629 92.5891 87.4629 91.3362C87.4629 90.0958 87.7106 89.0121 88.1463 88.2536C88.5769 87.5042 89.1676 87.1016 89.888 87.1016C90.6033 87.1016 91.1549 87.4949 91.5493 88.2359C91.9511 88.9908 92.1649 90.0737 92.1649 91.3233Z" fill="black" stroke="black" stroke-width="0.8"/>
</svg>
