<svg width="154" height="154" viewBox="0 0 154 154" fill="none" xmlns="http://www.w3.org/2000/svg">
<path d="M66.0463 91.4958C66.0463 94.0473 63.985 96.1156 61.4421 96.1156C58.8993 96.1156 56.8379 94.0473 56.8379 91.4958C56.8379 89.98 57.5655 88.6347 58.6894 87.7923C59.4572 87.2168 60.41 86.876 61.4421 86.876C63.985 86.876 66.0463 88.9444 66.0463 91.4958Z" fill="black"/>
<path d="M58.69 87.7919C57.5661 88.6343 56.8385 89.9796 56.8385 91.4954C56.8385 94.0469 58.8999 96.1152 61.4427 96.1152C63.9856 96.1152 66.0469 94.0469 66.0469 91.4954C66.0469 88.944 63.9856 86.8756 61.4427 86.8756C60.4106 86.8756 59.4578 87.2164 58.69 87.7919ZM58.69 87.7919C58.3083 87.8458 57.0105 87.1613 56.4453 85.9883" stroke="black" stroke-width="0.4" stroke-linejoin="round"/>
<path d="M87.9531 91.4958C87.9531 94.0473 90.0144 96.1156 92.5573 96.1156C95.1001 96.1156 97.1615 94.0473 97.1615 91.4958C97.1615 89.98 96.4339 88.6347 95.31 87.7923C94.5422 87.2168 93.5894 86.876 92.5573 86.876C90.0144 86.876 87.9531 88.9444 87.9531 91.4958Z" fill="black"/>
<path d="M95.31 87.7919C96.4339 88.6343 97.1615 89.9796 97.1615 91.4954C97.1615 94.0469 95.1001 96.1152 92.5573 96.1152C90.0144 96.1152 87.9531 94.0469 87.9531 91.4954C87.9531 88.944 90.0144 86.8756 92.5573 86.8756C93.5894 86.8756 94.5422 87.2164 95.31 87.7919ZM95.31 87.7919C95.6917 87.8458 96.9895 87.1613 97.5547 85.9883" stroke="black" stroke-width="0.4" stroke-linejoin="round"/>
</svg>
