<svg width="154" height="154" viewBox="0 0 154 154" fill="none" xmlns="http://www.w3.org/2000/svg">
<path d="M59.0209 99.6962C65.1778 99.6962 70.1688 94.7051 70.1688 88.5483C70.1688 82.3915 65.1778 77.4004 59.0209 77.4004C52.8641 77.4004 47.873 82.3915 47.873 88.5483C47.873 94.7051 52.8641 99.6962 59.0209 99.6962Z" fill="white" stroke="black" stroke-width="0.8"/>
<path d="M56.7504 91.9129C60.5767 91.9129 63.6785 88.8111 63.6785 84.9848C63.6785 81.1585 60.5767 78.0566 56.7504 78.0566C52.9241 78.0566 49.8223 81.1585 49.8223 84.9848C49.8223 88.8111 52.9241 91.9129 56.7504 91.9129Z" fill="black" stroke="black" stroke-width="0.8"/>
<path d="M94.978 99.6962C101.135 99.6962 106.126 94.7051 106.126 88.5483C106.126 82.3915 101.135 77.4004 94.978 77.4004C88.8212 77.4004 83.8301 82.3915 83.8301 88.5483C83.8301 94.7051 88.8212 99.6962 94.978 99.6962Z" fill="white" stroke="black" stroke-width="0.8"/>
<path d="M92.7074 91.9129C96.5337 91.9129 99.6355 88.8111 99.6355 84.9848C99.6355 81.1585 96.5337 78.0566 92.7074 78.0566C88.8811 78.0566 85.7793 81.1585 85.7793 84.9848C85.7793 88.8111 88.8811 91.9129 92.7074 91.9129Z" fill="black" stroke="black" stroke-width="0.8"/>
</svg>
