<svg width="154" height="154" viewBox="0 0 154 154" fill="none" xmlns="http://www.w3.org/2000/svg">
<g filter="url(#filter0_d_842_6343)">
<path d="M66.2009 77H50.6477C50.482 77 50.3477 77.1343 50.3477 77.3V78.6813C50.3477 78.8469 50.482 78.9813 50.6477 78.9813H66.2009C66.3665 78.9813 66.5009 78.8469 66.5009 78.6813V77.3C66.5009 77.1343 66.3665 77 66.2009 77Z" fill="black"/>
<path d="M65.3783 78.9805H51.4641C51.2984 78.9805 51.1641 79.1148 51.1641 79.2805V80.6617C51.1641 80.8274 51.2984 80.9617 51.4641 80.9617H65.3783C65.544 80.9617 65.6783 80.8274 65.6783 80.6617V79.2805C65.6783 79.1148 65.544 78.9805 65.3783 78.9805Z" fill="black"/>
<path d="M65.3783 84.9277H51.4641C51.2984 84.9277 51.1641 85.0621 51.1641 85.2277V86.609C51.1641 86.7747 51.2984 86.909 51.4641 86.909H65.3783C65.544 86.909 65.6783 86.7747 65.6783 86.609V85.2277C65.6783 85.0621 65.544 84.9277 65.3783 84.9277Z" fill="black"/>
<path d="M65.7345 80.9629H51.1164C50.9507 80.9629 50.8164 81.0972 50.8164 81.2629V82.6441C50.8164 82.8098 50.9507 82.9442 51.1164 82.9442H65.7345C65.9002 82.9442 66.0345 82.8098 66.0345 82.6441V81.2629C66.0345 81.0972 65.9002 80.9629 65.7345 80.9629Z" fill="black"/>
<path d="M65.7345 86.9082H51.1164C50.9507 86.9082 50.8164 87.0425 50.8164 87.2082V88.5895C50.8164 88.7551 50.9507 88.8895 51.1164 88.8895H65.7345C65.9002 88.8895 66.0345 88.7551 66.0345 88.5895V87.2082C66.0345 87.0425 65.9002 86.9082 65.7345 86.9082Z" fill="black"/>
<path d="M66.2009 82.9453H50.6477C50.482 82.9453 50.3477 83.0796 50.3477 83.2453V84.6266C50.3477 84.7923 50.482 84.9266 50.6477 84.9266H66.2009C66.3665 84.9266 66.5009 84.7923 66.5009 84.6266V83.2453C66.5009 83.0796 66.3665 82.9453 66.2009 82.9453Z" fill="black"/>
<path d="M66.2009 88.8906H50.6477C50.482 88.8906 50.3477 89.0249 50.3477 89.1906V90.5719C50.3477 90.7376 50.482 90.8719 50.6477 90.8719H66.2009C66.3665 90.8719 66.5009 90.7376 66.5009 90.5719V89.1906C66.5009 89.0249 66.3665 88.8906 66.2009 88.8906Z" fill="black"/>
<path d="M55.7679 83.44C56.8629 83.44 57.7506 82.5523 57.7506 81.4573C57.7506 80.3623 56.8629 79.4746 55.7679 79.4746C54.6728 79.4746 53.7852 80.3623 53.7852 81.4573C53.7852 82.5523 54.6728 83.44 55.7679 83.44Z" fill="white"/>
<path d="M60.8489 88.3952C62.0664 88.3952 63.0534 87.4082 63.0534 86.1908C63.0534 84.9733 62.0664 83.9863 60.8489 83.9863C59.6315 83.9863 58.6445 84.9733 58.6445 86.1908C58.6445 87.4082 59.6315 88.3952 60.8489 88.3952Z" fill="white"/>
<path d="M103.353 77H87.8C87.6343 77 87.5 77.1343 87.5 77.3V78.6813C87.5 78.8469 87.6343 78.9813 87.8 78.9813H103.353C103.519 78.9813 103.653 78.8469 103.653 78.6813V77.3C103.653 77.1343 103.519 77 103.353 77Z" fill="black"/>
<path d="M102.531 78.9805H88.6164C88.4507 78.9805 88.3164 79.1148 88.3164 79.2805V80.6617C88.3164 80.8274 88.4507 80.9617 88.6164 80.9617H102.531C102.696 80.9617 102.831 80.8274 102.831 80.6617V79.2805C102.831 79.1148 102.696 78.9805 102.531 78.9805Z" fill="black"/>
<path d="M102.531 84.9277H88.6164C88.4507 84.9277 88.3164 85.0621 88.3164 85.2277V86.609C88.3164 86.7747 88.4507 86.909 88.6164 86.909H102.531C102.696 86.909 102.831 86.7747 102.831 86.609V85.2277C102.831 85.0621 102.696 84.9277 102.531 84.9277Z" fill="black"/>
<path d="M102.887 80.9629H88.2687C88.1031 80.9629 87.9688 81.0972 87.9688 81.2629V82.6441C87.9688 82.8098 88.1031 82.9442 88.2687 82.9442H102.887C103.053 82.9442 103.187 82.8098 103.187 82.6441V81.2629C103.187 81.0972 103.053 80.9629 102.887 80.9629Z" fill="black"/>
<path d="M102.887 86.9082H88.2687C88.1031 86.9082 87.9688 87.0425 87.9688 87.2082V88.5895C87.9688 88.7551 88.1031 88.8895 88.2687 88.8895H102.887C103.053 88.8895 103.187 88.7551 103.187 88.5895V87.2082C103.187 87.0425 103.053 86.9082 102.887 86.9082Z" fill="black"/>
<path d="M103.353 82.9453H87.8C87.6343 82.9453 87.5 83.0796 87.5 83.2453V84.6266C87.5 84.7923 87.6343 84.9266 87.8 84.9266H103.353C103.519 84.9266 103.653 84.7923 103.653 84.6266V83.2453C103.653 83.0796 103.519 82.9453 103.353 82.9453Z" fill="black"/>
<path d="M103.353 88.8906H87.8C87.6343 88.8906 87.5 89.0249 87.5 89.1906V90.5719C87.5 90.7376 87.6343 90.8719 87.8 90.8719H103.353C103.519 90.8719 103.653 90.7376 103.653 90.5719V89.1906C103.653 89.0249 103.519 88.8906 103.353 88.8906Z" fill="black"/>
<path d="M92.9241 83.44C94.0191 83.44 94.9068 82.5523 94.9068 81.4573C94.9068 80.3623 94.0191 79.4746 92.9241 79.4746C91.8291 79.4746 90.9414 80.3623 90.9414 81.4573C90.9414 82.5523 91.8291 83.44 92.9241 83.44Z" fill="white"/>
<path d="M98.0052 88.3952C99.2227 88.3952 100.21 87.4082 100.21 86.1908C100.21 84.9733 99.2227 83.9863 98.0052 83.9863C96.7877 83.9863 95.8008 84.9733 95.8008 86.1908C95.8008 87.4082 96.7877 88.3952 98.0052 88.3952Z" fill="white"/>
</g>
<defs>
<filter id="filter0_d_842_6343" x="-4" y="0" width="162" height="162" filterUnits="userSpaceOnUse" color-interpolation-filters="sRGB">
<feFlood flood-opacity="0" result="BackgroundImageFix"/>
<feColorMatrix in="SourceAlpha" type="matrix" values="0 0 0 0 0 0 0 0 0 0 0 0 0 0 0 0 0 0 127 0" result="hardAlpha"/>
<feOffset dy="4"/>
<feGaussianBlur stdDeviation="2"/>
<feComposite in2="hardAlpha" operator="out"/>
<feColorMatrix type="matrix" values="0 0 0 0 0 0 0 0 0 0 0 0 0 0 0 0 0 0 0.25 0"/>
<feBlend mode="normal" in2="BackgroundImageFix" result="effect1_dropShadow_842_6343"/>
<feBlend mode="normal" in="SourceGraphic" in2="effect1_dropShadow_842_6343" result="shape"/>
</filter>
</defs>
</svg>
