<svg width="154" height="154" viewBox="0 0 154 154" fill="none" xmlns="http://www.w3.org/2000/svg">
<path d="M25.1867 67.7944C24.7835 55.9265 25.2036 31.6514 30.1089 29.4943C31.7219 28.785 34.5198 29.4832 37.8091 30.9425C44.5231 33.9212 53.2848 40.0712 58.197 43.8966L25.1867 67.7944Z" fill="white"/>
<path d="M37.8091 30.9425C44.5231 33.9212 53.2848 40.0712 58.197 43.8966L25.1867 67.7944C24.7835 55.9265 25.2036 31.6514 30.1089 29.4943C31.7219 28.785 34.5198 29.4832 37.8091 30.9425ZM37.8091 30.9425C41.1043 34.2038 46.3387 40.5248 46.9886 44.3162" stroke="black" stroke-width="0.8" stroke-linecap="round" stroke-linejoin="round"/>
<path d="M129.563 67.7944C129.967 55.9265 129.547 31.6514 124.641 29.4943C123.028 28.785 120.23 29.4832 116.941 30.9425C110.227 33.9212 101.465 40.0712 96.5527 43.8966L129.563 67.7944Z" fill="white"/>
<path d="M116.941 30.9425C110.227 33.9212 101.465 40.0712 96.5527 43.8966L129.563 67.7944C129.967 55.9265 129.547 31.6514 124.641 29.4943C123.028 28.785 120.23 29.4832 116.941 30.9425ZM116.941 30.9425C113.646 34.2038 108.411 40.5248 107.761 44.3162" stroke="black" stroke-width="0.8" stroke-linecap="round" stroke-linejoin="round"/>
<path d="M139.355 94.5455C139.355 100.289 137.648 105.022 134.57 108.903C131.487 112.792 127.006 115.852 121.423 118.203C110.248 122.908 94.7613 124.727 77.5864 124.727C60.4121 124.727 44.6307 122.908 33.1609 118.201C27.4303 115.849 22.8033 112.787 19.611 108.897C16.4256 105.015 14.6484 100.284 14.6484 94.5455C14.6484 83.0307 21.8098 69.635 33.3089 59.0976C44.7962 48.5709 60.5397 40.9668 77.5864 40.9668C94.6315 40.9668 110.081 48.5695 121.275 59.0932C132.479 69.627 139.355 83.0237 139.355 94.5455Z" fill="white" stroke="black"/>
</svg>
