<svg width="154" height="154" viewBox="0 0 154 154" fill="none" xmlns="http://www.w3.org/2000/svg">
<path d="M136.842 83.9915C136.842 96.1159 130.196 107.133 119.371 115.137C108.546 123.141 93.5675 128.107 77.0009 128.107C60.4343 128.107 45.4559 123.141 34.6308 115.137C23.8056 107.133 17.1602 96.1159 17.1602 83.9915C17.1602 71.8517 24.0553 58.7317 35.1381 48.6311C46.2131 38.5377 61.4157 31.5117 77.9365 31.5117C94.4548 31.5117 109.186 38.5356 119.791 48.6238C130.403 58.7186 136.842 71.8399 136.842 83.9915Z" fill="white" stroke="black"/>
<path d="M39.6378 71.5943C34.422 76.6642 28.2124 79.6948 22.4062 80.5142C16.5997 81.3336 11.2355 79.9408 7.62117 76.2224C4.0068 72.504 2.76675 67.1025 3.75063 61.3215C4.73443 55.5409 7.94005 49.4198 13.1559 44.35C18.3717 39.2801 24.5813 36.2495 30.3875 35.4301C36.194 34.6106 41.5582 36.0035 45.1725 39.7219C48.7869 43.4403 50.027 48.8418 49.0431 54.6228C48.0593 60.4033 44.8537 66.5244 39.6378 71.5943Z" fill="white" stroke="black"/>
<path d="M114.363 71.5943C119.579 76.6642 125.789 79.6948 131.595 80.5142C137.402 81.3336 142.766 79.9408 146.38 76.2224C149.994 72.504 151.234 67.1025 150.251 61.3215C149.267 55.5409 146.061 49.4198 140.845 44.35C135.629 39.2801 129.42 36.2495 123.614 35.4301C117.807 34.6106 112.443 36.0035 108.829 39.7219C105.214 43.4403 103.974 48.8418 104.958 54.6228C105.942 60.4033 109.148 66.5244 114.363 71.5943Z" fill="white" stroke="black"/>
</svg>
