<svg width="154" height="154" viewBox="0 0 154 154" fill="none" xmlns="http://www.w3.org/2000/svg">
<path d="M46.1578 1.35616C59.1465 -2.73663 61.2074 29.4548 60.6142 46.0621L46.6288 52.5234C37.7737 39.5749 33.169 5.44896 46.1578 1.35616Z" fill="white" stroke="black" stroke-linejoin="round"/>
<path d="M106.759 1.35616C93.7707 -2.73663 91.7099 29.4548 92.303 46.0621L106.288 52.5234C115.143 39.5749 119.748 5.44896 106.759 1.35616Z" fill="white" stroke="black" stroke-linejoin="round"/>
<path d="M22.8438 89.8603C22.8438 66.4173 47.0212 44.2031 77.0019 44.2031C106.983 44.2031 131.16 66.4173 131.16 89.8603C131.16 100.226 126.445 106.834 118.466 114.289C108.541 123.564 93.6598 129.476 77.0019 129.476C60.3439 129.476 45.4624 123.564 35.5376 114.289C27.559 106.834 22.8438 100.226 22.8438 89.8603Z" fill="white" stroke="black"/>
</svg>
