<svg width="154" height="154" viewBox="0 0 154 154" fill="none" xmlns="http://www.w3.org/2000/svg">
<g filter="url(#filter0_d_842_6432)">
<path d="M140.708 104.521C139.766 110.398 127.898 109.147 122.758 108.06L133.275 87.2559C135.851 90.4732 141.673 98.5029 140.708 104.521Z" fill="white" stroke="black"/>
<path d="M13.2924 104.521C14.2347 110.398 26.1029 109.147 31.2428 108.06L20.7255 87.2559C18.1493 90.4732 12.3273 98.5029 13.2924 104.521Z" fill="white" stroke="black"/>
<path d="M19.5312 79.1052C19.5313 52.6222 45.2202 26.8887 76.9781 26.8887C108.736 26.8887 134.425 52.6222 134.425 79.1052C134.425 105.539 108.792 127.111 76.9781 127.111C45.1642 127.111 19.5312 105.539 19.5312 79.1052Z" fill="white" stroke="black"/>
</g>
<defs>
<filter id="filter0_d_842_6432" x="-4" y="0" width="162" height="162" filterUnits="userSpaceOnUse" color-interpolation-filters="sRGB">
<feFlood flood-opacity="0" result="BackgroundImageFix"/>
<feColorMatrix in="SourceAlpha" type="matrix" values="0 0 0 0 0 0 0 0 0 0 0 0 0 0 0 0 0 0 127 0" result="hardAlpha"/>
<feOffset dy="4"/>
<feGaussianBlur stdDeviation="2"/>
<feComposite in2="hardAlpha" operator="out"/>
<feColorMatrix type="matrix" values="0 0 0 0 0 0 0 0 0 0 0 0 0 0 0 0 0 0 0.25 0"/>
<feBlend mode="normal" in2="BackgroundImageFix" result="effect1_dropShadow_842_6432"/>
<feBlend mode="normal" in="SourceGraphic" in2="effect1_dropShadow_842_6432" result="shape"/>
</filter>
</defs>
</svg>
