<svg width="154" height="154" viewBox="0 0 154 154" fill="none" xmlns="http://www.w3.org/2000/svg">
<path d="M84.1473 112.444C84.1473 112.685 84.102 112.814 84.0576 112.883C84.0195 112.942 83.9612 112.99 83.8462 113.022C83.7207 113.057 83.541 113.069 83.2912 113.049C83.0445 113.029 82.7545 112.979 82.4187 112.909C82.1467 112.852 81.848 112.782 81.5264 112.707C80.2837 112.415 78.6996 112.044 77.0004 112.044C75.3012 112.044 73.7171 112.415 72.4744 112.707C72.1528 112.782 71.8541 112.852 71.5821 112.909C71.2463 112.979 70.9563 113.029 70.7096 113.049C70.4598 113.069 70.2801 113.057 70.1546 113.022C70.0396 112.99 69.9813 112.942 69.9432 112.883C69.8988 112.814 69.8535 112.685 69.8535 112.444C69.8535 111.505 70.5582 110.498 71.8714 109.702C73.1683 108.915 74.9819 108.388 77.0004 108.388C79.0189 108.388 80.8325 108.915 82.1294 109.702C83.4426 110.498 84.1473 111.505 84.1473 112.444Z" stroke="black" stroke-width="0.8"/>
</svg>
