<svg width="154" height="154" viewBox="0 0 154 154" fill="none" xmlns="http://www.w3.org/2000/svg">
<path d="M86.8286 117.791C86.2726 116.32 83.3501 116.324 81.9583 116.509M86.8286 117.791C87.0139 119.314 86.4524 122.327 82.7236 122.193C78.9947 122.059 77.3205 118.348 76.9495 116.509M86.8286 117.791C86.0511 115.994 84.6282 113.516 82.7236 111.43M81.9583 116.509C79.7878 115.038 77.7147 115.896 76.9495 116.509M81.9583 116.509C81.6879 117.116 81.2282 118.375 81.5527 118.563M76.9495 116.509C74.0276 116.416 68.1282 115.997 67.9056 115.06C67.6837 114.127 65.6922 111.564 69.1635 109.321M82.7236 111.43C81.1149 111.721 77.708 111.98 76.9495 110.691V107.627M82.7236 111.43C81.1111 109.664 79.1533 108.179 76.9495 107.627M69.1635 109.321C70.0452 108.751 71.2793 108.202 72.9844 107.705C73.646 107.512 74.2938 107.415 74.9259 107.399M69.1635 109.321C68.912 109.475 69.1834 110.095 69.3506 110.386C69.5925 110.41 70.5359 110.478 72.3741 110.556C74.2124 110.633 74.8412 108.483 74.9259 107.399M76.9495 107.627C76.2957 107.463 75.6203 107.381 74.9259 107.399" stroke="black" stroke-width="0.8" stroke-linecap="round" stroke-linejoin="round"/>
</svg>
