<svg width="154" height="154" viewBox="0 0 154 154" fill="none" xmlns="http://www.w3.org/2000/svg">
<path d="M76.9968 106.994C77.9054 108.26 79.2755 109.602 80.8356 110.228C79.3234 110.491 75.7855 110.806 73.7324 109.962C75.0528 109.269 76.2014 108.102 76.9968 106.994Z" fill="white"/>
<path d="M76.9985 102.541V106.994M76.9985 106.994C76.2031 108.102 75.054 109.269 73.7333 109.962M76.9985 106.994C77.9071 108.26 79.2764 109.602 80.8365 110.228M73.7333 109.962C70.9355 111.431 67.3677 110.775 64.7617 102.937M73.7333 109.962C75.7864 110.806 79.3243 110.491 80.8365 110.228M89.2346 102.938C86.8036 110.249 83.5357 111.311 80.8365 110.228" stroke="black" stroke-width="0.8" stroke-linecap="round" stroke-linejoin="round"/>
</svg>
