<svg width="154" height="154" viewBox="0 0 154 154" fill="none" xmlns="http://www.w3.org/2000/svg">
<path d="M76.9991 105.75C78.041 106.677 79.6121 107.66 81.401 108.119C79.6669 108.312 75.6102 108.543 73.2559 107.924C74.77 107.416 76.087 106.562 76.9991 105.75Z" fill="white"/>
<path d="M77.0005 102.488V105.75C76.0884 106.562 74.7707 107.416 73.2563 107.924M73.2563 107.924C70.0481 109 65.9569 108.52 62.9688 102.778M73.2563 107.924C74.7704 107.416 76.0873 106.562 76.9994 105.75C78.0413 106.677 79.6124 107.66 81.4013 108.119M73.2563 107.924C75.6106 108.543 79.6672 108.312 81.4013 108.119M91.0313 102.779C89.9938 104.772 88.8234 106.131 87.6032 107.011M87.6032 107.011C89.2896 110.62 92.1564 118.099 90.1327 119.142C87.6031 120.444 84.96 119.142 83.8284 118.082C82.4845 116.823 81.4013 115.988 81.4013 108.119M87.6032 107.011C86.7545 107.623 85.8817 108.003 85.0127 108.204M81.4013 108.119C82.5433 108.411 83.7741 108.49 85.0127 108.204M85.0127 108.204C85.1737 109.586 85.7472 112.469 86.7531 112.944" stroke="black" stroke-width="0.8" stroke-linecap="round" stroke-linejoin="round"/>
</svg>
