<svg width="176" height="154" viewBox="0 0 176 154" fill="none" xmlns="http://www.w3.org/2000/svg">
<g id="&#225;&#132;&#139;&#225;&#133;&#181;&#225;&#132;&#134;&#225;&#133;&#166;&#225;&#132;&#139;&#225;&#133;&#181;&#225;&#134;&#175;&#225;&#132;&#139;&#225;&#133;&#181;&#225;&#134;&#171;&#225;&#132;&#140;&#225;&#133;&#179;&#225;&#134;&#188;&#225;&#132;&#139;&#225;&#133;&#170;&#225;&#134;&#171;&#225;&#132;&#133;&#225;&#133;&#173; 1">
<path id="Vector" d="M169.995 70.0971L135.03 46.3071H7.08008L34.7702 70.0971H135.03H169.995Z" fill="#E4F4FF"/>
<path id="Vector_2" d="M34.7702 70.0971L7.08008 46.3071M34.7702 70.0971H135.03M34.7702 70.0971V153.028M7.08008 46.3071H135.03L169.995 70.0971M7.08008 46.3071L7.08142 130.139L34.7702 153.028M135.03 70.0971H169.995M135.03 70.0971V134.367L169.995 153.028M34.7702 153.028H169.995M169.995 70.0971V153.028" stroke="#9E9E9E" stroke-width="0.5"/>
<path id="Vector_3" d="M98.9883 99.7163V128.207L129.936 153.076V147.944L98.9883 99.7163Z" fill="#D9D9D9"/>
<path id="Vector_4" d="M129.936 147.944V153.076H148.449V147.944H129.936Z" fill="#D9D9D9"/>
<path id="Vector_5" d="M163.509 133.299L161.023 137.997H142.924L147.606 146.424L161.023 146.997L163.509 143.681V133.299Z" fill="#D9D9D9"/>
<path id="Vector_6" d="M98.9883 99.7163L129.936 147.944H148.449L147.605 146.424L142.923 137.997H161.022L163.508 133.299L140.16 99.7163H98.9883Z" fill="white"/>
<path id="Vector_7" d="M98.9883 99.7163V128.207L129.936 153.076M98.9883 99.7163L129.936 147.944M98.9883 99.7163H140.16L163.508 133.299M129.936 153.076V147.944M129.936 153.076H148.449V147.944M129.936 147.944H148.449M163.508 133.299L161.022 137.997H142.923L147.605 146.424M163.508 133.299V143.681L161.022 146.997L147.605 146.424M148.449 147.944L147.605 146.424" stroke="#9E9E9E" stroke-width="0.5" stroke-linejoin="round"/>
<path id="Vector_8" d="M124.33 111.492L133.953 126.613H139.933L129.829 111.492H124.33Z" fill="#D9D9D9" stroke="#9E9E9E" stroke-width="0.5" stroke-linejoin="round"/>
<path id="Vector_9" d="M52.2617 99.8179V128.823L80.4357 153.075V147.844L52.2617 99.8179Z" fill="#D9D9D9"/>
<path id="Vector_10" d="M80.4355 147.844V153.075H127.393V147.844H80.4355Z" fill="#D9D9D9"/>
<path id="Vector_11" d="M112.533 128.823H90.4219L93.7504 136.67H112.533V128.823Z" fill="#D9D9D9"/>
<path id="Vector_12" d="M103.736 110.041H80.4355L84.9529 117.768H103.736V110.041Z" fill="#D9D9D9"/>
<path id="Vector_13" d="M52.2617 99.8179L80.4357 147.844H127.393L119.903 136.67H112.533H93.75L90.4215 128.823H112.533L106.945 117.768H103.736H84.9531L80.4357 110.041H103.736L97.3164 99.8179H52.2617Z" fill="white"/>
<path id="Vector_14" d="M52.2617 99.8179V128.823L80.4357 153.075M52.2617 99.8179L80.4357 147.844M52.2617 99.8179H97.3164L103.736 110.041M80.4357 153.075V147.844M80.4357 153.075H127.393V147.844M80.4357 147.844H127.393M103.736 110.041H80.4357L84.9531 117.768H103.736M103.736 110.041V117.768M127.393 147.844L119.903 136.67H112.533M103.736 117.768H106.945L112.533 128.823M112.533 128.823H90.4215L93.75 136.67H112.533M112.533 128.823V136.67" stroke="#9E9E9E" stroke-width="0.5" stroke-linejoin="round"/>
<path id="Vector_15" d="M6.59961 99.7173V129.702L34.8948 152.892V147.665L6.59961 99.7173Z" fill="#D9D9D9"/>
<path id="Vector_16" d="M34.8945 147.665V152.892H77.4832V147.665H34.8945Z" fill="#D9D9D9"/>
<path id="Vector_17" d="M6.59961 99.7173L34.8948 147.665H77.4835L76.7714 144.546L50.4962 99.7163L6.59961 99.7173Z" fill="white"/>
<path id="Vector_18" d="M6.59961 99.7173V129.702L34.8948 152.892M6.59961 99.7173L34.8948 147.665M6.59961 99.7173L50.4962 99.7163L76.7714 144.546L77.4835 147.665M34.8948 152.892V147.665M34.8948 152.892H77.4835V147.665M34.8948 147.665H77.4835" stroke="#9E9E9E" stroke-width="0.5" stroke-linejoin="round"/>
<path id="Vector_19" d="M51.3253 137.365H46.0761L30.5156 112.056H36.3275L51.3253 133.428V137.365Z" fill="#D9D9D9" stroke="#9E9E9E" stroke-width="0.5" stroke-linejoin="round"/>
<path id="Vector_20" d="M34.7266 76.0337L34.7268 152.744" stroke="#9E9E9E" stroke-width="0.5"/>
<path id="Vector_21" d="M110.943 86.805L175.31 33.6807L69.0156 65.612L79.3137 69.8213L110.943 86.805Z" fill="white"/>
<path id="Vector_22" d="M9.65039 26.5059L51.5057 49.9886L175.311 33.6809L9.65039 26.5059Z" fill="white"/>
<path id="Vector_23" d="M60.4707 82.6122L79.314 69.8211L69.0159 65.6118L60.4707 82.6122Z" fill="#818181"/>
<path id="Vector_24" d="M51.5059 49.9884L60.4718 82.6124L69.017 65.612L175.311 33.6807L51.5059 49.9884Z" fill="#BCBCBC"/>
<path id="Vector_25" d="M175.311 33.6809L110.944 86.8052L79.3148 69.8215M175.311 33.6809L9.65039 26.5059L51.5057 49.9886M175.311 33.6809L51.5057 49.9886M175.311 33.6809L69.0168 65.6122M79.3148 69.8215L60.4715 82.6126M79.3148 69.8215L69.0168 65.6122M51.5057 49.9886L60.4715 82.6126M69.0168 65.6122L60.4715 82.6126" stroke="#9E9E9E" stroke-width="0.5"/>
</g>
</svg>
