<svg width="373" height="99" viewBox="0 0 373 99" fill="none" xmlns="http://www.w3.org/2000/svg">
<g filter="url(#filter0_d_880_5058)">
<rect x="26.0713" y="1.1084" width="321" height="48" rx="2" fill="#ADBBC8" fill-opacity="0.25" shape-rendering="crispEdges"/>
<rect x="26.4713" y="1.5084" width="320.2" height="47.2" rx="1.6" stroke="#ADBBC8" stroke-width="0.8" shape-rendering="crispEdges"/>
<path d="M77.0713 23.7282V25.1082C77.0694 28.3428 76.022 31.4902 74.0853 34.0809C72.1485 36.6717 69.4262 38.5669 66.3243 39.484C63.2224 40.4012 59.9072 40.291 56.873 39.1701C53.8388 38.0491 51.2483 35.9773 49.4877 33.2638C47.7272 30.5502 46.891 27.3403 47.1038 24.1127C47.3166 20.885 48.5671 17.8127 50.6687 15.3538C52.7703 12.8949 55.6105 11.1813 58.7656 10.4684C61.9207 9.75556 65.2217 10.0817 68.1763 11.3982M77.0713 13.1082L62.0713 28.1232L57.5713 23.6232" stroke="#0258FE" stroke-linecap="round" stroke-linejoin="round"/>
<path d="M103.175 18.8284H104.855V27.1324H103.175V18.8284ZM95.2873 27.8684H104.855V33.2604H95.2873V27.8684ZM103.207 29.1964H96.9353V31.9164H103.207V29.1964ZM96.9673 19.5484C99.2073 19.5484 100.839 20.9564 100.839 23.0044C100.839 25.0204 99.2073 26.4604 96.9673 26.4604C94.7273 26.4604 93.0793 25.0204 93.0793 23.0044C93.0793 20.9564 94.7273 19.5484 96.9673 19.5484ZM96.9673 20.9404C95.6713 20.9404 94.7113 21.7564 94.7113 23.0044C94.7113 24.2524 95.6713 25.0524 96.9673 25.0524C98.2633 25.0524 99.2073 24.2524 99.2073 23.0044C99.2073 21.7564 98.2633 20.9404 96.9673 20.9404ZM111.238 20.0124H112.614V22.4124C112.614 25.9484 111.03 29.1964 108.406 30.4764L107.398 29.0844C109.734 28.0284 111.238 25.2124 111.238 22.4124V20.0124ZM111.558 20.0124H112.918V22.4124C112.918 25.1004 114.406 27.7884 116.71 28.8124L115.718 30.1564C113.142 28.9404 111.558 25.8204 111.558 22.4124V20.0124ZM117.878 18.7964H119.558V33.4524H117.878V18.7964ZM136.287 18.7964H137.967V33.4524H136.287V18.7964ZM133.407 24.0284H136.735V25.3884H133.407V24.0284ZM129.391 20.9884H130.735V22.7964C130.735 26.1244 129.151 29.3724 126.655 30.6364L125.663 29.3084C127.919 28.2204 129.391 25.4364 129.391 22.7964V20.9884ZM129.759 20.9884H131.087V22.7964C131.087 25.2924 132.543 27.9644 134.799 29.0204L133.823 30.3324C131.311 29.1164 129.759 25.9964 129.759 22.7964V20.9884ZM126.223 20.2684H134.255V21.6284H126.223V20.2684ZM143.997 20.4124H145.373V21.4684C145.373 24.2044 143.885 26.5724 141.261 27.4684L140.429 26.1404C142.717 25.3564 143.997 23.4684 143.997 21.4684V20.4124ZM144.317 20.4124H145.677V21.4684C145.677 23.2764 146.893 24.9724 149.133 25.6924L148.333 27.0044C145.741 26.1724 144.317 23.9964 144.317 21.4684V20.4124ZM140.893 19.8524H148.749V21.1964H140.893V19.8524ZM150.285 18.8124H151.965V27.5644H150.285V18.8124ZM151.501 22.3644H154.029V23.7564H151.501V22.3644ZM147.261 27.9004C150.253 27.9004 152.125 28.9244 152.125 30.6524C152.125 32.3964 150.253 33.4204 147.261 33.4204C144.253 33.4204 142.381 32.3964 142.381 30.6524C142.381 28.9244 144.253 27.9004 147.261 27.9004ZM147.261 29.2284C145.229 29.2284 144.045 29.7244 144.045 30.6524C144.045 31.5964 145.229 32.1084 147.261 32.1084C149.293 32.1084 150.461 31.5964 150.461 30.6524C150.461 29.7244 149.293 29.2284 147.261 29.2284ZM156.348 24.9404H163.9V26.3004H156.348V24.9404ZM159.244 26.0284H160.924V29.2764H159.244V26.0284ZM156.348 20.1564H163.82V21.5004H158.028V25.3884H156.348V20.1564ZM165.628 18.7964H167.308V33.4524H165.628V18.7964ZM155.548 30.4124L155.34 29.0364C158.172 29.0364 161.692 29.0044 164.748 28.6524L164.876 29.8844C161.692 30.3804 158.3 30.4284 155.548 30.4124ZM173.595 27.6444H174.891V28.3644C174.891 30.4444 173.787 32.4284 171.595 33.2444L170.763 32.0124C172.635 31.3404 173.595 29.8044 173.595 28.3644V27.6444ZM173.995 27.6444H175.227V28.3644C175.227 29.8364 176.011 31.4044 177.803 32.1404L177.099 33.3884C174.891 32.5404 173.995 30.4284 173.995 28.3644V27.6444ZM178.971 27.6444H180.187V28.3644C180.187 30.2364 179.275 32.4764 177.099 33.3884L176.395 32.1404C178.171 31.3244 178.971 29.6604 178.971 28.3644V27.6444ZM179.339 27.6444H180.619V28.3644C180.619 29.9004 181.547 31.3884 183.467 32.0124L182.619 33.2444C180.411 32.4604 179.339 30.5404 179.339 28.3644V27.6444ZM177.147 22.3484H180.827V23.7244H177.147V22.3484ZM173.995 19.5964C176.155 19.5964 177.787 21.0364 177.787 23.0684C177.787 25.0844 176.155 26.5244 173.995 26.5244C171.819 26.5244 170.203 25.0844 170.203 23.0684C170.203 21.0364 171.819 19.5964 173.995 19.5964ZM173.995 20.9884C172.731 20.9884 171.803 21.8204 171.803 23.0684C171.803 24.3004 172.731 25.1324 173.995 25.1324C175.243 25.1324 176.187 24.3004 176.187 23.0684C176.187 21.8204 175.243 20.9884 173.995 20.9884ZM180.427 18.8124H182.107V27.0844H180.427V18.8124ZM186.314 27.5804H187.978V29.0684H194.554V27.5804H196.218V33.2604H186.314V27.5804ZM187.978 30.3324V31.9324H194.554V30.3324H187.978ZM184.698 25.3564H197.914V26.6844H184.698V25.3564ZM190.458 18.9724H191.898V19.5324C191.898 22.0764 189.354 24.0284 186.01 24.4924L185.402 23.1804C188.33 22.8124 190.458 21.2124 190.458 19.5324V18.9724ZM190.73 18.9724H192.17V19.5324C192.17 21.1964 194.314 22.8124 197.21 23.1804L196.602 24.4924C193.274 24.0284 190.73 22.0444 190.73 19.5324V18.9724ZM209.832 18.8124H211.496V33.4364H209.832V18.8124ZM200.28 20.2204H201.944V29.2924H200.28V20.2204ZM200.28 28.3004H201.528C203.704 28.3004 206.04 28.1404 208.488 27.6444L208.68 29.0524C206.152 29.5804 203.8 29.7404 201.528 29.7404H200.28V28.3004ZM223.799 18.7964H225.479V33.4524H223.799V18.7964ZM225.095 24.4124H227.751V25.8044H225.095V24.4124ZM214.743 28.4764H215.927C218.519 28.4764 220.439 28.3804 222.599 27.9804L222.775 29.3884C220.535 29.7884 218.583 29.8684 215.927 29.8684H214.743V28.4764ZM214.743 20.1884H221.543V21.5484H216.407V29.1164H214.743V20.1884ZM230.518 32.3324C229.814 32.3324 229.286 31.7884 229.286 31.0364C229.286 30.2684 229.814 29.7404 230.518 29.7404C231.206 29.7404 231.75 30.2684 231.75 31.0364C231.75 31.7884 231.206 32.3324 230.518 32.3324Z" fill="black"/>
</g>
<defs>
<filter id="filter0_d_880_5058" x="0.968128" y="0.257872" width="371.206" height="98.2063" filterUnits="userSpaceOnUse" color-interpolation-filters="sRGB">
<feFlood flood-opacity="0" result="BackgroundImageFix"/>
<feColorMatrix in="SourceAlpha" type="matrix" values="0 0 0 0 0 0 0 0 0 0 0 0 0 0 0 0 0 0 127 0" result="hardAlpha"/>
<feMorphology radius="4" operator="erode" in="SourceAlpha" result="effect1_dropShadow_880_5058"/>
<feOffset dy="24.2526"/>
<feGaussianBlur stdDeviation="14.5516"/>
<feComposite in2="hardAlpha" operator="out"/>
<feColorMatrix type="matrix" values="0 0 0 0 0.0627451 0 0 0 0 0.0941176 0 0 0 0 0.156863 0 0 0 0.1 0"/>
<feBlend mode="normal" in2="BackgroundImageFix" result="effect1_dropShadow_880_5058"/>
<feBlend mode="normal" in="SourceGraphic" in2="effect1_dropShadow_880_5058" result="shape"/>
</filter>
</defs>
</svg>
